<?xml version="1.0" encoding="utf-8"?><svg version="1.1" id="Layer_1" xmlns="http://www.w3.org/2000/svg" xmlns:xlink="http://www.w3.org/1999/xlink" x="0px" y="0px" viewBox="0 0 115.28 122.88" style="enable-background:new 0 0 115.28 122.88" xml:space="preserve"><style type="text/css">.st0{fill-rule:evenodd;clip-rule:evenodd;}</style><g><path class="st0" d="M25.38,57h64.88V37.34H69.59c-2.17,0-5.19-1.17-6.62-2.6c-1.43-1.43-2.3-4.01-2.3-6.17V7.64l0,0H8.15 c-0.18,0-0.32,0.09-0.41,0.18C7.59,7.92,7.55,8.05,7.55,8.24v106.45c0,0.14,0.09,0.32,0.18,0.41c0.09,0.14,0.28,0.18,0.41,0.18 c22.78,0,58.09,0,81.51,0c0.18,0,0.17-0.09,0.27-0.18c0.14-0.09,0.33-0.28,0.33-0.41v-11.16H25.38c-4.14,0-7.56-3.4-7.56-7.56 V64.55C17.82,60.4,21.22,57,25.38,57L25.38,57z M47.29,88.43h-8.55l-1.23,4.03h-7.71L39,68.03h8.26l9.16,24.43h-7.91L47.29,88.43 L47.29,88.43z M45.7,83.14l-2.67-8.78l-2.68,8.78H45.7L45.7,83.14z M57.7,68.03h12.56c2.74,0,4.78,0.65,6.15,1.95 c1.36,1.3,2.04,3.16,2.04,5.56c0,2.47-0.74,4.4-2.23,5.79c-1.48,1.39-3.75,2.09-6.8,2.09h-4.14v9.04H57.7V68.03L57.7,68.03z M65.27,78.47h1.86c1.47,0,2.5-0.26,3.09-0.76c0.59-0.51,0.89-1.15,0.89-1.95c0-0.77-0.26-1.42-0.77-1.95 c-0.51-0.53-1.48-0.8-2.9-0.8h-2.16V78.47L65.27,78.47z M81.26,68.03h12.56c2.74,0,4.78,0.65,6.15,1.95 c1.36,1.3,2.04,3.16,2.04,5.56c0,2.47-0.74,4.4-2.23,5.79c-1.48,1.39-3.75,2.09-6.8,2.09h-4.14v9.04h-7.58V68.03L81.26,68.03z M88.84,78.47h1.86c1.47,0,2.5-0.26,3.09-0.76c0.59-0.51,0.89-1.15,0.89-1.95c0-0.77-0.26-1.42-0.77-1.95 c-0.51-0.53-1.48-0.8-2.9-0.8h-2.16V78.47L88.84,78.47z M97.79,57h9.93c4.16,0,7.56,3.41,7.56,7.56v31.42 c0,4.15-3.41,7.56-7.56,7.56h-9.93v13.55c0,1.61-0.65,3.04-1.7,4.1c-1.06,1.06-2.49,1.7-4.1,1.7c-29.44,0-56.59,0-86.18,0 c-1.61,0-3.04-0.64-4.1-1.7c-1.06-1.06-1.7-2.49-1.7-4.1V5.85c0-1.61,0.65-3.04,1.7-4.1c1.06-1.06,2.53-1.7,4.1-1.7h58.72 C64.66,0,64.8,0,64.94,0c0.64,0,1.29,0.28,1.75,0.69h0.09c0.09,0.05,0.14,0.09,0.23,0.18l29.99,30.36c0.51,0.51,0.88,1.2,0.88,1.98 c0,0.23-0.05,0.41-0.09,0.65V57L97.79,57z M67.52,27.97V8.94l21.43,21.7H70.19c-0.74,0-1.38-0.32-1.89-0.78 C67.84,29.4,67.52,28.71,67.52,27.97L67.52,27.97z"/></g></svg>